<svg width="25" height="25" viewBox="0 0 25 25" fill="none" xmlns="http://www.w3.org/2000/svg">
<path d="M2.67617 5.98924C2.56652 6.21489 2.5 6.46432 2.5 6.73074V18.2692C2.5 18.5355 2.56645 18.7849 2.67602 19.0105L9.28863 12.5L2.67617 5.98924Z" fill="#222222"/>
<path d="M14.8828 13.3159L12.8752 15.2156C12.7607 15.3283 12.6108 15.3847 12.4609 15.3847C12.311 15.3847 12.1611 15.3283 12.0467 15.2156L10.1171 13.3158L3.50439 19.8264C3.73361 19.9344 3.98709 20 4.25775 20H20.7421C21.0127 20 21.266 19.9345 21.4952 19.8265L14.8828 13.3159Z" fill="#222222"/>
<path d="M22.3241 5.9896L15.7115 12.5001L22.3239 19.0108C22.4335 18.7851 22.5 18.5357 22.5 18.2693V6.73083C22.5 6.46457 22.4337 6.21518 22.3241 5.9896Z" fill="#222222"/>
<path d="M20.7422 5H4.25785C3.98726 5 3.73394 5.0655 3.50476 5.17346L12.461 13.9919L14.4684 12.0924L21.4956 5.17362C21.2664 5.06558 21.0129 5 20.7422 5Z" fill="#222222"/>
</svg>
