<svg width="25" height="26" viewBox="0 0 25 26" fill="none" xmlns="http://www.w3.org/2000/svg">
<rect x="3" y="3.5" width="19" height="19" rx="3.5" stroke="#C94A21"/>
<path fill-rule="evenodd" clip-rule="evenodd" d="M6.5 4C4.84315 4 3.5 5.34315 3.5 7V19C3.5 20.6569 4.84315 22 6.5 22H18.5C20.1569 22 21.5 20.6569 21.5 19V7C21.5 5.34315 20.1569 4 18.5 4H6.5ZM18.4928 9.70711C18.8833 9.31658 18.8833 8.68342 18.4928 8.29289C18.1023 7.90237 17.4691 7.90237 17.0786 8.29289L10.7143 14.6572L8.20711 12.15C7.81658 11.7595 7.18342 11.7595 6.79289 12.15C6.40237 12.5406 6.40237 13.1737 6.79289 13.5642L10.0072 16.7785C10.3977 17.1691 11.0309 17.1691 11.4214 16.7785L18.4928 9.70711Z" fill="#C94A21"/>
</svg>
