<svg width="25" height="25" viewBox="0 0 25 25" fill="none" xmlns="http://www.w3.org/2000/svg">
<path d="M12.5002 2.5C9.73117 2.5 7.48639 4.61616 7.48639 7.22655C7.48639 9.83693 7.48639 10.7031 7.48639 10.7031H9.97258C9.97258 10.7031 9.97258 8.54252 9.97258 7.22655C9.97258 5.91057 11.1042 4.84374 12.5002 4.84374C13.8962 4.84374 15.0278 5.91057 15.0278 7.22655C15.0278 8.54252 15.0278 10.7031 15.0278 10.7031H17.514C17.514 10.7031 17.514 9.83693 17.514 7.22655C17.514 4.61616 15.2692 2.5 12.5002 2.5Z" fill="#222222"/>
<path d="M5 11.875V22.5H20V11.875H5ZM13.1215 17.3228V19.2383H11.8785V17.3228C11.5073 17.1199 11.2569 16.7414 11.2569 16.3086C11.2569 15.6624 11.8146 15.1367 12.5 15.1367C13.1854 15.1367 13.7431 15.6624 13.7431 16.3086C13.7431 16.7414 13.4927 17.1199 13.1215 17.3228Z" fill="#222222"/>
</svg>
